<svg width="188" height="188" viewBox="0 0 188 188" fill="none" xmlns="http://www.w3.org/2000/svg">
<path d="M63.4374 124.349C63.3529 124.343 63.2687 124.336 63.1849 124.33C63.2167 121.906 63.2801 119.012 63.388 115.756C63.5848 109.803 63.9338 102.619 64.5431 94.7691C64.9747 89.1907 65.5458 83.2823 66.282 77.247C74.3993 71.5607 84.4268 64.9035 95.2096 58.608C82.4848 53.4294 68.04 52.1855 57.2255 56.3423C56.1081 56.772 54.9983 57.2331 53.899 57.7255C30.5968 68.1726 11.9621 92.64 23.6146 128.493C23.5974 128.456 23.5802 128.418 23.563 128.381C23.5758 128.42 23.5886 128.46 23.6015 128.5C36.1296 155.585 63.5467 174.377 95.3493 174.377C122.521 174.377 146.487 160.66 160.708 139.779C143.153 161.539 124.356 161.919 119.949 161.906C117.226 161.9 88.0574 161.246 70.4584 137.289C69.6904 136.248 65.1907 130.664 63.1852 124.336C63.0038 124.327 63.0117 124.328 63.1852 124.336C63.248 124.34 63.3324 124.344 63.4374 124.349Z" fill="#A01E5B"/>
<path fill-rule="evenodd" clip-rule="evenodd" d="M113.233 19.4827C139.924 30.6218 146.037 51.0055 147.046 54.3761C147.047 54.3775 147.047 54.3789 147.048 54.3803C147.078 54.4808 147.103 54.566 147.125 54.6353C147.103 54.5652 147.077 54.4785 147.046 54.3761C146.037 51.0092 139.923 30.6221 113.233 19.4827ZM23.6146 128.493L23.563 128.381C11.9879 92.586 30.6164 68.1528 53.899 57.7255C30.5968 68.1726 11.9621 92.64 23.6146 128.493Z" fill="#A01E5B"/>
<path d="M107.103 17.2177C108.786 17.7641 110.399 18.3462 111.946 18.9592C112.38 19.1313 112.809 19.3058 113.233 19.4827C139.924 30.6218 146.037 51.0055 147.046 54.3761C147.047 54.3775 147.047 54.3789 147.048 54.3803C147.078 54.4808 147.103 54.566 147.125 54.6353C147.931 57.2373 156.124 76.6565 141.096 106.389C139.407 109.727 130.173 122.356 127.539 124.317C127.535 124.204 127.531 124.09 127.527 123.974C127.529 124.092 127.531 124.208 127.533 124.324C118.768 125.003 107.522 125.479 95.2671 125.415C84.5934 125.36 66.3119 124.49 63.4374 124.349C63.3324 124.344 63.248 124.34 63.1852 124.336C65.1907 130.664 69.6904 136.248 70.4584 137.289C88.0574 161.246 117.226 161.9 119.949 161.906C124.356 161.919 143.153 161.539 160.708 139.779L160.751 139.726C169.35 127.078 174.377 111.809 174.377 95.3594C174.377 55.7142 145.17 22.8849 107.103 17.2177Z" fill="#93227F"/>
<path fill-rule="evenodd" clip-rule="evenodd" d="M113.233 19.4827C139.924 30.6218 146.037 51.0055 147.046 54.3761C147.047 54.3775 147.047 54.3789 147.048 54.3803C147.078 54.4808 147.103 54.566 147.125 54.6353C147.103 54.5652 147.077 54.4785 147.046 54.3761C146.037 51.0092 139.923 30.6221 113.233 19.4827ZM23.6146 128.493L23.563 128.381C11.9879 92.586 30.6164 68.1528 53.899 57.7255C30.5968 68.1726 11.9621 92.64 23.6146 128.493Z" fill="#93227F"/>
<path fill-rule="evenodd" clip-rule="evenodd" d="M113.233 19.4827C139.924 30.6218 146.037 51.0055 147.046 54.3761L147.048 54.3803C147.078 54.4808 147.103 54.566 147.125 54.6353C147.103 54.5652 147.077 54.4785 147.046 54.3761C146.037 51.0092 139.923 30.6221 113.233 19.4827ZM23.6146 128.493L23.563 128.381C11.9879 92.586 30.6164 68.1528 53.899 57.7255C30.5968 68.1726 11.9621 92.64 23.6146 128.493Z" fill="#D41553"/>
<path d="M107.103 17.2177C103.27 16.6465 99.3544 16.3478 95.3624 16.3478C51.7235 16.3478 16.3478 51.7219 16.3478 95.3589C16.3478 107.151 18.937 118.332 23.563 128.381C11.9879 92.586 30.6164 68.1528 53.899 57.7255C55.0026 57.2307 56.1168 56.7673 57.2387 56.3357C68.0532 52.1789 82.4916 53.4227 95.2227 58.6013C95.2418 58.5886 95.2545 58.5823 95.2735 58.5696C95.3624 58.6203 95.4512 58.6775 95.5464 58.7282C101.519 62.225 107.249 65.8233 112.555 69.3075C116.833 72.1125 120.844 74.8478 124.455 77.3863C126.13 91.1094 127.161 113.792 127.527 123.974L127.539 124.317C130.173 122.356 139.407 109.727 141.096 106.389C156.124 76.6565 147.931 57.2373 147.125 54.6353C147.103 54.5652 147.077 54.4785 147.046 54.3761C146.037 51.0092 139.923 30.6221 113.233 19.4827C112.809 19.3058 112.38 19.1313 111.946 18.9592C110.399 18.3462 108.786 17.7641 107.103 17.2177Z" fill="#D41553"/>
</svg>
