<svg width="2025" height="2025" viewBox="0 0 2025 2025" fill="none" xmlns="http://www.w3.org/2000/svg">
<g opacity="0.2">
<path d="M683.301 1339.4C682.391 1339.33 681.484 1339.26 680.582 1339.19C680.924 1313.08 681.608 1281.91 682.77 1246.84C684.889 1182.72 688.649 1105.34 695.211 1020.78C699.86 960.698 706.012 897.057 713.942 832.049C801.375 770.801 909.385 699.094 1025.53 631.283C888.466 575.503 732.878 562.105 616.392 606.879C604.355 611.507 592.402 616.474 580.56 621.777C329.567 734.307 128.847 997.852 254.36 1384.03C254.174 1383.63 253.988 1383.23 253.803 1382.83C253.941 1383.25 254.079 1383.68 254.218 1384.1C389.161 1675.85 684.479 1878.26 1027.03 1878.26C1319.71 1878.26 1577.86 1730.52 1731.03 1505.6C1541.94 1739.98 1339.47 1744.08 1292 1743.94C1262.67 1743.87 948.49 1736.83 758.927 1478.78C750.655 1467.57 702.187 1407.42 680.585 1339.26C678.632 1339.17 678.716 1339.17 680.585 1339.26C681.261 1339.3 682.171 1339.34 683.301 1339.4Z" fill="#A01E5B"/>
<path fill-rule="evenodd" clip-rule="evenodd" d="M1219.66 209.854C1507.16 329.837 1573.01 549.394 1583.88 585.701C1583.88 585.716 1583.89 585.731 1583.89 585.746C1584.22 586.828 1584.49 587.747 1584.72 588.493C1584.49 587.737 1584.21 586.804 1583.88 585.701C1573 549.435 1507.15 329.839 1219.66 209.854ZM254.36 1384.03L253.803 1382.83C129.125 997.269 329.778 734.093 580.56 621.777C329.567 734.307 128.847 997.852 254.36 1384.03Z" fill="#A01E5B"/>
<path d="M1153.64 185.457C1171.76 191.343 1189.14 197.612 1205.8 204.215C1210.48 206.069 1215.1 207.949 1219.66 209.854C1507.16 329.837 1573.01 549.394 1583.88 585.701C1583.88 585.716 1583.89 585.731 1583.89 585.746C1584.22 586.828 1584.49 587.747 1584.72 588.493C1593.4 616.519 1681.66 825.688 1519.78 1145.94C1501.6 1181.9 1402.13 1317.93 1373.76 1339.05C1373.72 1337.84 1373.67 1336.61 1373.63 1335.36C1373.65 1336.63 1373.67 1337.88 1373.69 1339.13C1279.29 1346.44 1158.15 1351.57 1026.15 1350.88C911.179 1350.28 714.263 1340.91 683.301 1339.4C682.171 1339.34 681.261 1339.3 680.585 1339.26C702.187 1407.42 750.655 1467.57 758.927 1478.78C948.49 1736.83 1262.67 1743.87 1292 1743.94C1339.47 1744.08 1541.94 1739.98 1731.03 1505.6L1731.49 1505.03C1824.12 1368.79 1878.26 1204.33 1878.26 1027.14C1878.26 600.113 1563.67 246.5 1153.64 185.457Z" fill="#93227F"/>
<path fill-rule="evenodd" clip-rule="evenodd" d="M1219.66 209.854C1507.16 329.837 1573.01 549.394 1583.88 585.701C1583.88 585.716 1583.89 585.731 1583.89 585.746C1584.22 586.828 1584.49 587.747 1584.72 588.493C1584.49 587.737 1584.21 586.804 1583.88 585.701C1573 549.435 1507.15 329.839 1219.66 209.854ZM254.36 1384.03L253.803 1382.83C129.125 997.269 329.778 734.093 580.56 621.777C329.567 734.307 128.847 997.852 254.36 1384.03Z" fill="#93227F"/>
<path fill-rule="evenodd" clip-rule="evenodd" d="M1219.66 209.854C1507.16 329.837 1573.01 549.394 1583.88 585.701L1583.89 585.746C1584.22 586.828 1584.49 587.747 1584.72 588.493C1584.49 587.737 1584.21 586.804 1583.88 585.701C1573 549.435 1507.15 329.839 1219.66 209.854ZM254.36 1384.03L253.803 1382.83C129.125 997.269 329.778 734.093 580.56 621.777C329.567 734.307 128.847 997.852 254.36 1384.03Z" fill="#D41553"/>
<path d="M1153.64 185.457C1112.35 179.305 1070.17 176.087 1027.17 176.087C557.128 176.087 176.087 557.112 176.087 1027.14C176.087 1154.15 203.975 1274.59 253.803 1382.83C129.125 997.269 329.778 734.093 580.56 621.777C592.448 616.448 604.449 611.457 616.533 606.808C733.019 562.033 888.539 575.431 1025.67 631.211C1025.88 631.074 1026.01 631.006 1026.22 630.87C1027.17 631.416 1028.13 632.032 1029.16 632.578C1093.48 670.243 1155.21 709.002 1212.36 746.53C1258.44 776.744 1301.64 806.206 1340.54 833.549C1358.59 981.365 1369.68 1225.68 1373.63 1335.36L1373.76 1339.05C1402.13 1317.93 1501.6 1181.9 1519.78 1145.94C1681.66 825.688 1593.4 616.519 1584.72 588.493C1584.49 587.737 1584.21 586.804 1583.88 585.701C1573 549.435 1507.15 329.839 1219.66 209.854C1215.1 207.949 1210.48 206.069 1205.8 204.215C1189.14 197.612 1171.76 191.343 1153.64 185.457Z" fill="#D41553"/>
</g>
</svg>
